inDegrees=no
num_controls=7
num_derivatives=13
num_iterations=128
num_multipliers=7
num_parameters=0
num_slacks=7
num_states=26
objective=4.260769
objective_accelerations=0.622167
objective_balance=0.067046
objective_effort=0.634061
objective_height=2.884037
objective_ligament=0.053459
solver_duration=1265.223743
status=Solve_Succeeded
success=true
DataType=double
version=3
OpenSimVersion=4.4-2022-07-23-0e9fedc
endheader
time	/jointset/ground_pelvis/pelvis_tilt/value	/jointset/ground_pelvis/pelvis_tx/value	/jointset/ground_pelvis/pelvis_ty/value	/jointset/hip_l/hip_flexion_l/value	/jointset/hip_l/hip_adduction_l/value	/jointset/hip_l/hip_rotation_l/value	/jointset/back/lumbar_extension/value	/jointset/patellofemoral_l/patellar_flexion_l/value	/jointset/knee_l/knee_flexion_l/value	/jointset/knee_l/knee_adduction_l/value	/jointset/knee_l/knee_rotation_l/value	/jointset/ankle_l/ankle_angle_l/value	/jointset/subtalar_l/subtalar_angle_l/value	/jointset/ground_pelvis/pelvis_tilt/speed	/jointset/ground_pelvis/pelvis_tx/speed	/jointset/ground_pelvis/pelvis_ty/speed	/jointset/hip_l/hip_flexion_l/speed	/jointset/hip_l/hip_adduction_l/speed	/jointset/hip_l/hip_rotation_l/speed	/jointset/back/lumbar_extension/speed	/jointset/patellofemoral_l/patellar_flexion_l/speed	/jointset/knee_l/knee_flexion_l/speed	/jointset/knee_l/knee_adduction_l/speed	/jointset/knee_l/knee_rotation_l/speed	/jointset/ankle_l/ankle_angle_l/speed	/jointset/subtalar_l/subtalar_angle_l/speed	/forceset/tau_hip_flexion_l	/forceset/tau_hip_adduction_l	/forceset/tau_hip_rotation_l	/forceset/tau_knee_flexion_l	/forceset/tau_ankle_angle_l	/forceset/tau_subtalar_angle_l	/forceset/tau_lumbar_extension	lambda_cid13_p0	lambda_cid13_p1	lambda_cid13_p2	lambda_cid13_p3	lambda_cid13_p4	lambda_cid13_p5	lambda_cid14_p0	/jointset/ground_pelvis/pelvis_tilt/accel	/jointset/ground_pelvis/pelvis_tx/accel	/jointset/ground_pelvis/pelvis_ty/accel	/jointset/hip_l/hip_flexion_l/accel	/jointset/hip_l/hip_adduction_l/accel	/jointset/hip_l/hip_rotation_l/accel	/jointset/back/lumbar_extension/accel	/jointset/patellofemoral_l/patellar_flexion_l/accel	/jointset/knee_l/knee_flexion_l/accel	/jointset/knee_l/knee_adduction_l/accel	/jointset/knee_l/knee_rotation_l/accel	/jointset/ankle_l/ankle_angle_l/accel	/jointset/subtalar_l/subtalar_angle_l/accel	gamma_cid13_p0	gamma_cid13_p1	gamma_cid13_p2	gamma_cid13_p3	gamma_cid13_p4	gamma_cid13_p5	gamma_cid14_p0
0	-0.0368224441068629	0.05667746361494801	0.920341597834501	0.3085811930696054	-0.2956403685079905	-0.3016056408465972	-0.3879500408040475	0.2499276582271425	0.249927658227084	-0.1745328612982805	-0.1745313521326916	-0.0008036543073733089	0.0004376942680907219	0	0	0	0	0	0	0	0	0	0	0	0	0	0.09993134326911461	-0.06370268215208799	-0.02350275151130915	-0.2733189931740997	0.2363713605614519	-0.0230312013258123	-0.02308818248808006	33.795065424564	1.865636846224155	1.783510766566564	-3.032055744835028	-598.2303796365738	-72.1760301389682	-23.1970283199488	-1.399752248628671	-2.217366372178329	-1.292473558391432	13.54413819538466	-0.6850095851883947	5.063268877923256	-7.994847803859821	15.15691631886222	15.15691631886234	3.471622592865267	-0.05947494888603686	4.298780920510733	0.7136749344459812	2.672057045796048e-08	5.496794590060219e-07	1.236801211683124e-07	-7.676560184210894e-09	3.173547992340752e-07	-1.697828749013666e-08	4.955844120618027e-08
0.01	-0.03688709632331207	0.05656893218334654	0.9202785558008219	0.3092406832902658	-0.2956744418491996	-0.3013512424655911	-0.388346650054307	0.250670520700457	0.2506705207004236	-0.1743643090420635	-0.1745284601524152	-0.0005920168204972678	0.0004724031539033948	-0.01286130291675332	-0.02149143154649426	-0.01255318482416517	0.1310916376438896	-0.006726443503773221	0.05053021429138194	-0.07848576687465553	0.1477965158385469	0.1477965158385454	0.03361035889690106	0.0005442081552988914	0.0422433784092064	0.007008692866069969	0.09073013965378865	-0.07166391612757943	-0.02232817309299857	-0.2659137633139703	0.2255238645405695	-0.009523777641531674	-0.0142960665803014	30.62633235044078	-3.396815620694399	2.566520388741215	-3.469373321311492	-602.742022849545	-82.41545035586556	-23.20517271305987	-1.218967088850334	-2.082804864541095	-1.228394186777756	12.77070224182779	-0.6533488867164947	4.995489772239114	-7.650028653325671	14.4746124825331	14.47461248253278	3.290841731768288	0.1062408396789676	4.174515694198432	0.7044016730475487	-2.37354571930949e-08	5.57418469497722e-07	2.486058943415917e-07	6.797407384577049e-08	2.010357250257706e-08	-1.150318622809246e-07	4.662291015866051e-08
0.02	-0.03707829112404788	0.05625193177254954	0.9200916512704296	0.3111868950259622	-0.2957731570561982	-0.3006020235281747	-0.3895030344781271	0.2528680669853504	0.2528680669853754	-0.1738626333581483	-0.1745211516616333	3.953432908584772e-05	0.0005791860104488684	-0.02530851685959796	-0.04169379583910685	-0.02477249934259084	0.2573443030052512	-0.01292837315734102	0.09896411128246031	-0.1519550347116556	0.2909367623243869	0.2909367623243832	0.06662468554043652	0.0008833019882080759	0.0839827325413306	0.01441479414654253	0.08152893603841707	-0.07962515010303793	-0.0211535946743883	-0.258508533453962	0.2146763685196559	0.003983646042767877	-0.005503950672527564	27.57839402460119	-8.675954372304322	3.34709150253911	-4.147830284777107	-605.4944971698119	-92.49420700448619	-23.22896797039792	-1.316934453847193	-1.959552921401785	-1.225699497243557	12.57634373887911	-0.5801068151475537	4.644005417860861	-6.991547996328954	14.22566244832114	14.22566244832112	3.352416142191915	-0.1004978133657945	4.197976065094514	0.793156617326346	-7.419148484415028e-08	5.651574799894221e-07	3.73531667514871e-07	1.436247078757519e-07	-2.771476542289211e-07	-2.130854370717126e-07	4.368737911114075e-08
0.03	-0.03739223654283981	0.05573820819694657	0.9197834282148751	0.3143742900178492	-0.2959316750816333	-0.2993797280094458	-0.3913727235508967	0.256475522369302	0.2564755223692979	-0.1730346723446061	-0.174512603645786	0.001084838950913158	0.0007612280256178006	-0.03740553536234315	-0.06095005724065111	-0.03688673634610495	0.379544447884148	-0.01874085251251524	0.1452160533908876	-0.2215627770807339	0.4299077509324545	0.4299077509324532	0.09873116318967236	0.000827176858705414	0.1248708784711637	0.02196229375035763	0.07477354411916973	-0.07220272483155915	-0.02016897386426307	-0.2522799212284927	0.2079663330180254	0.001539505120145462	8.470091015011569e-05	25.33606006910253	-7.307577055293224	3.226858275998777	-3.159859087956531	-605.8634397112434	-88.66340338981051	-23.2670751740386	-1.144835407426329	-1.89350441236029	-1.206536119165147	11.95330044860899	-0.5768145229404538	4.573919879555421	-6.882386943718116	13.63582381210174	13.63582381210188	3.104450935105695	0.04200541046986182	4.003151796957784	0.7307166961037295	-1.176851600221757e-07	4.381201456796101e-07	5.504073459070097e-07	1.677711110330776e-07	-4.422773354867668e-07	-3.85113018757452e-07	1.632085992399795e-08
0.04	-0.03782490211842497	0.05503495367476236	0.9193536127258335	0.3187659765757969	-0.2961473171060753	-0.297703286815198	-0.3939258899646538	0.2614532889883325	0.2614532889883446	-0.1718927090828322	-0.1745045818264482	0.002532808620045655	0.00101777904966405	-0.04905254822271086	-0.07959998515535235	-0.04909098604000401	0.4982026162115712	-0.02435317295722122	0.1897932463881751	-0.288650502910698	0.5649990093426243	0.5649990093426257	0.1294251351915631	0.0007780626576813847	0.164515742002211	0.02931659592195939	0.06801815220009225	-0.06478029956006051	-0.01918435305396924	-0.2460513090029152	0.2012562975164487	-0.0009046358024403785	0.005673352492914551	23.20280332327864	-5.949944799117443	3.098796677003794	-2.397560150738418	-604.6515431173859	-84.67729435594502	-23.31772109539715	-1.226933325371931	-1.838286224033027	-1.243702035320565	11.86794842858441	-0.5400750330540161	4.309055595632053	-6.487544688506368	13.44971640874174	13.44971640874179	3.069915012722801	-0.09909562767100862	3.949319585337539	0.7545171308836224	-1.610352815409633e-07	3.083039176625504e-07	7.283541563655167e-07	1.908555712858125e-07	-6.046828611678361e-07	-5.586658376987575e-07	-1.15493909773639e-08
0.05	-0.03837228395637639	0.05414890801208282	0.9188009782418862	0.3243263319922318	-0.2964176726002207	-0.2955912059461001	-0.3971352179674554	0.2677626059511333	0.2677626059511446	-0.1704504106795283	-0.1744982140202569	0.004371712743895347	0.001347604033183195	-0.06034847898179881	-0.09744015132348775	-0.06147217524015498	0.6131789437458555	-0.02964302679107635	0.2322906429839998	-0.3526420140586465	0.6961684146451453	0.6961684146451471	0.1588242380220967	0.0005077698820664916	0.2031182760965732	0.03668193458965277	0.06062509277044729	-0.06259606728096039	-0.01820968851491589	-0.241385523957588	0.1956035520545357	0.001357285430356837	0.0121440530813439	21.56737814839506	-6.657547989623927	3.224859791295844	-2.711948205032264	-604.1688168178831	-84.96947841429638	-23.37861603083573	-1.069622619268893	-1.73149404660164	-1.240889284936178	11.20903151221006	-0.5123755791854856	4.170145032704472	-6.268991789983175	12.84615984062483	12.84615984062481	2.843497438718301	0.01095847339464835	3.7937084465026	0.7324395675807303	-1.876334226064806e-07	1.348749032536841e-07	7.862571057244112e-07	1.998368370447329e-07	-7.066106462861635e-07	-6.369981534699693e-07	-3.608670118943987e-08
0.06	-0.03903036503552282	0.05308953824104278	0.918123419481422	0.3310157620033016	-0.2967387136368339	-0.2930641384428172	-0.4009672685741401	0.2753627384168787	0.2753627384168859	-0.1687204033438197	-0.1744941582265525	0.006592239833692777	0.001752061869953163	-0.07119239646459857	-0.1142648068274529	-0.07407584134338217	0.7240175351345208	-0.0344902814502929	0.2727905732256932	-0.4131950236884074	0.8231621099323728	0.8231621099323763	0.1869669216726169	0.0003156601425026561	0.2408403351916224	0.04424316657208847	0.05323203334086109	-0.06041183500187428	-0.01723502397581557	-0.2367197389122617	0.1899508065926125	0.003619206663135578	0.01861475366984021	20.02712998296049	-7.37862335540662	3.349424681505016	-3.237909548580902	-602.3189006965442	-85.13446715506795	-23.44702421943527	-1.13653067011445	-1.635184091198832	-1.288197415935824	11.04040119946068	-0.4515551981263773	3.909562324805252	-5.799844384869016	12.61457440568313	12.61457440568341	2.818631176720088	-0.08345902046139667	3.773224585475091	0.793695793832065	-2.13526217126597e-07	-4.039043900325818e-08	8.391055767212167e-07	2.082242840881244e-07	-8.059920002229016e-07	-7.11321184897177e-07	-6.048367705670379e-08
